<svg width="71" height="19" viewBox="0 0 71 19" fill="none" xmlns="http://www.w3.org/2000/svg">
<path d="M0.350394 18V0.343661H4.61792V14.5343H11.9632V18H0.350394ZM31.1209 9.17183C31.1209 11.1145 30.7473 12.7611 30.0001 14.1118C29.2529 15.4625 28.2414 16.4884 26.9654 17.1896C25.6952 17.8908 24.2698 18.2414 22.6893 18.2414C21.103 18.2414 19.6747 17.8879 18.4045 17.181C17.1343 16.474 16.1256 15.4481 15.3785 14.1032C14.637 12.7525 14.2663 11.1087 14.2663 9.17183C14.2663 7.22917 14.637 5.58251 15.3785 4.23185C16.1256 2.88118 17.1343 1.85526 18.4045 1.15406C19.6747 0.452863 21.103 0.102265 22.6893 0.102265C24.2698 0.102265 25.6952 0.452863 26.9654 1.15406C28.2414 1.85526 29.2529 2.88118 30.0001 4.23185C30.7473 5.58251 31.1209 7.22917 31.1209 9.17183ZM26.7585 9.17183C26.7585 8.02233 26.5947 7.051 26.2671 6.25784C25.9452 5.46469 25.4797 4.86407 24.8705 4.456C24.267 4.04793 23.5399 3.84389 22.6893 3.84389C21.8444 3.84389 21.1173 4.04793 20.5081 4.456C19.8989 4.86407 19.4304 5.46469 19.1028 6.25784C18.781 7.051 18.62 8.02233 18.62 9.17183C18.62 10.3213 18.781 11.2927 19.1028 12.0858C19.4304 12.879 19.8989 13.4796 20.5081 13.8877C21.1173 14.2957 21.8444 14.4998 22.6893 14.4998C23.5399 14.4998 24.267 14.2957 24.8705 13.8877C25.4797 13.4796 25.9452 12.879 26.2671 12.0858C26.5947 11.2927 26.7585 10.3213 26.7585 9.17183ZM46.1705 6.11128C46.0728 5.74919 45.9291 5.4302 45.7394 5.15432C45.5498 4.8727 45.317 4.63417 45.0411 4.43876C44.7652 4.24334 44.4491 4.09678 44.0928 3.99907C43.7364 3.89562 43.3456 3.84389 42.9203 3.84389C42.0639 3.84389 41.3225 4.0508 40.696 4.46462C40.0753 4.87844 39.5953 5.48193 39.2562 6.27509C38.9171 7.0625 38.7476 8.01946 38.7476 9.14597C38.7476 10.2782 38.9114 11.2438 39.239 12.0427C39.5666 12.8416 40.0408 13.4508 40.6615 13.8704C41.2822 14.29 42.0352 14.4998 42.9203 14.4998C43.7019 14.4998 44.3629 14.3733 44.9032 14.1204C45.4492 13.8618 45.863 13.4968 46.1446 13.0255C46.4263 12.5542 46.5671 11.9996 46.5671 11.3616L47.3602 11.4565H43.0668V8.34419H50.6794V10.6806C50.6794 12.2611 50.3432 13.6147 49.6707 14.7412C49.004 15.8677 48.0844 16.7327 46.9119 17.3362C45.7452 17.9397 44.4031 18.2414 42.8858 18.2414C41.2018 18.2414 39.7218 17.8764 38.4458 17.1465C37.1699 16.4166 36.1756 15.3763 35.4629 14.0256C34.7502 12.6692 34.3939 11.0599 34.3939 9.19769C34.3939 7.74932 34.6094 6.46475 35.0404 5.34399C35.4715 4.21748 36.0721 3.26339 36.8423 2.48173C37.6182 1.70007 38.5148 1.10808 39.5321 0.705753C40.5552 0.303428 41.6558 0.102265 42.8341 0.102265C43.8571 0.102265 44.8083 0.248827 45.6877 0.54195C46.5728 0.835073 47.3545 1.24889 48.0327 1.78341C48.7166 2.31793 49.2713 2.95303 49.6966 3.68871C50.1219 4.42439 50.3863 5.23191 50.4897 6.11128H46.1705ZM70.8307 9.17183C70.8307 11.1145 70.4571 12.7611 69.7099 14.1118C68.9627 15.4625 67.9512 16.4884 66.6752 17.1896C65.405 17.8908 63.9796 18.2414 62.3991 18.2414C60.8128 18.2414 59.3845 17.8879 58.1143 17.181C56.8441 16.474 55.8354 15.4481 55.0882 14.1032C54.3468 12.7525 53.9761 11.1087 53.9761 9.17183C53.9761 7.22917 54.3468 5.58251 55.0882 4.23185C55.8354 2.88118 56.8441 1.85526 58.1143 1.15406C59.3845 0.452863 60.8128 0.102265 62.3991 0.102265C63.9796 0.102265 65.405 0.452863 66.6752 1.15406C67.9512 1.85526 68.9627 2.88118 69.7099 4.23185C70.4571 5.58251 70.8307 7.22917 70.8307 9.17183ZM66.4683 9.17183C66.4683 8.02233 66.3045 7.051 65.9769 6.25784C65.655 5.46469 65.1895 4.86407 64.5802 4.456C63.9768 4.04793 63.2497 3.84389 62.3991 3.84389C61.5542 3.84389 60.8271 4.04793 60.2179 4.456C59.6086 4.86407 59.1402 5.46469 58.8126 6.25784C58.4908 7.051 58.3298 8.02233 58.3298 9.17183C58.3298 10.3213 58.4908 11.2927 58.8126 12.0858C59.1402 12.879 59.6086 13.4796 60.2179 13.8877C60.8271 14.2957 61.5542 14.4998 62.3991 14.4998C63.2497 14.4998 63.9768 14.2957 64.5802 13.8877C65.1895 13.4796 65.655 12.879 65.9769 12.0858C66.3045 11.2927 66.4683 10.3213 66.4683 9.17183Z" fill="black"/>
</svg>
