<svg width="25" height="25" viewBox="0 0 25 25" fill="none" xmlns="http://www.w3.org/2000/svg">
<path d="M18.0554 8.54167C18.0554 7.10508 17.4701 5.72733 16.4282 4.7115C15.3863 3.69568 13.9733 3.125 12.4998 3.125C11.0264 3.125 9.61334 3.69568 8.57147 4.7115C7.5296 5.72733 6.94428 7.10508 6.94428 8.54167C6.94428 14.8611 4.1665 17.7083 4.1665 17.7083H20.8332C20.8332 17.7083 18.0554 14.8611 18.0554 8.54167Z" stroke="#53627B" stroke-width="1.5" stroke-linecap="round" stroke-linejoin="round"/>
<path d="M14.5832 20.8333C14.3715 21.1501 14.0676 21.4131 13.7019 21.5959C13.3363 21.7787 12.9218 21.8749 12.4998 21.8749C12.0779 21.8749 11.6634 21.7787 11.2977 21.5959C10.9321 21.4131 10.6282 21.1501 10.4165 20.8333" stroke="#53627B" stroke-width="1.5" stroke-linecap="round" stroke-linejoin="round"/>
</svg>
