<svg width="22" height="22" viewBox="0 0 22 22" fill="none" xmlns="http://www.w3.org/2000/svg">
<path d="M7.85731 6.41667V4.4C7.85731 3.96239 8.02287 3.54271 8.31757 3.23327C8.61227 2.92384 9.01197 2.75 9.42873 2.75H12.5716C12.9884 2.75 13.3881 2.92384 13.6828 3.23327C13.9775 3.54271 14.143 3.96239 14.143 4.4V6.41667M17.4168 6.41667L16.5002 17.6C16.5002 18.0376 16.3346 18.4573 16.0399 18.7667C15.7452 19.0762 15.3455 19.25 14.9287 19.25H7.07159C6.65482 19.25 6.25512 19.0762 5.96042 18.7667C5.66572 18.4573 5.50016 18.0376 5.50016 17.6L4.5835 6.41667H17.4168Z" stroke="#67748E" stroke-width="1.2" stroke-linecap="round" stroke-linejoin="round"/>
<path d="M3.6665 6.41675H5.29613H18.3332" stroke="#67748E" stroke-width="1.5" stroke-linecap="round" stroke-linejoin="round"/>
</svg>
