<svg width="25" height="25" viewBox="0 0 25 25" fill="none" xmlns="http://www.w3.org/2000/svg">
<path d="M4.1665 8.33325H20.8332" stroke="#53627B" stroke-width="1.5" stroke-linecap="round" stroke-linejoin="round"/>
<path d="M16.6665 3.125V5.20833" stroke="#53627B" stroke-width="1.5" stroke-linecap="round" stroke-linejoin="round"/>
<path d="M8.3335 3.125V5.20833" stroke="#53627B" stroke-width="1.5" stroke-linecap="round" stroke-linejoin="round"/>
<path d="M3.125 6.25008C3.125 5.09949 4.05774 4.16675 5.20833 4.16675H19.7917C20.9423 4.16675 21.875 5.09949 21.875 6.25008V19.7917C21.875 20.9423 20.9423 21.8751 19.7917 21.8751H5.20833C4.05774 21.8751 3.125 20.9423 3.125 19.7917V6.25008Z" stroke="#53627B" stroke-width="1.5" stroke-linecap="round" stroke-linejoin="round"/>
<path d="M16.6665 17.1875H16.6685V17.1895H16.6665V17.1875Z" stroke="#53627B" stroke-width="2" stroke-linecap="round" stroke-linejoin="round"/>
<path d="M12.5 17.1875H12.502V17.1895H12.5V17.1875Z" stroke="#53627B" stroke-width="2" stroke-linecap="round" stroke-linejoin="round"/>
<path d="M8.3335 17.1875H8.3355V17.1895H8.3335V17.1875Z" stroke="#53627B" stroke-width="2" stroke-linecap="round" stroke-linejoin="round"/>
<path d="M16.6665 13.0208H16.6685V13.0228H16.6665V13.0208Z" stroke="#53627B" stroke-width="1.5" stroke-linecap="round" stroke-linejoin="round"/>
<path d="M12.5 13.0208H12.502V13.0228H12.5V13.0208Z" stroke="#53627B" stroke-width="1.5" stroke-linecap="round" stroke-linejoin="round"/>
<path d="M8.3335 13.0208H8.3355V13.0228H8.3335V13.0208Z" stroke="#53627B" stroke-width="1.5" stroke-linecap="round" stroke-linejoin="round"/>
</svg>
