<svg width="25" height="25" viewBox="0 0 25 25" fill="none" xmlns="http://www.w3.org/2000/svg">
<path d="M6.00962 15.625H5.04808C4.53805 15.625 4.0489 15.4224 3.68826 15.0617C3.32761 14.7011 3.125 14.212 3.125 13.7019V5.04808C3.125 4.53805 3.32761 4.0489 3.68826 3.68826C4.0489 3.32761 4.53805 3.125 5.04808 3.125H13.7019C14.212 3.125 14.7011 3.32761 15.0617 3.68826C15.4224 4.0489 15.625 4.53805 15.625 5.04808V6.00962" stroke="#53627B" stroke-width="1.5" stroke-linecap="round" stroke-linejoin="round"/>
<path d="M9.375 11.4583C9.375 10.3077 10.3077 9.375 11.4583 9.375H19.7917C20.9423 9.375 21.875 10.3077 21.875 11.4583V19.7917C21.875 20.9423 20.9423 21.875 19.7917 21.875H11.4583C10.3077 21.875 9.375 20.9423 9.375 19.7917V11.4583Z" stroke="#53627B" stroke-width="1.5" stroke-linecap="round" stroke-linejoin="round"/>
</svg>
