<svg width="25" height="25" viewBox="0 0 25 25" fill="none" xmlns="http://www.w3.org/2000/svg">
<g clip-path="url(#clip0_17_396)">
<path d="M17.3643 13.6772C18.7913 14.646 19.7913 15.9585 19.7913 17.7085V20.8335H23.958V17.7085C23.958 15.4377 20.2393 14.0939 17.3643 13.6772Z" fill="#53627B"/>
<path d="M15.6247 12.5001C17.9268 12.5001 19.7913 10.6355 19.7913 8.33342C19.7913 6.03133 17.9268 4.16675 15.6247 4.16675C15.1351 4.16675 14.6768 4.27091 14.2393 4.41675C15.1038 5.48966 15.6247 6.85425 15.6247 8.33342C15.6247 9.81258 15.1038 11.1772 14.2393 12.2501C14.6768 12.3959 15.1351 12.5001 15.6247 12.5001Z" fill="#53627B"/>
<path d="M9.37467 12.5001C11.6768 12.5001 13.5413 10.6355 13.5413 8.33342C13.5413 6.03133 11.6768 4.16675 9.37467 4.16675C7.07259 4.16675 5.20801 6.03133 5.20801 8.33342C5.20801 10.6355 7.07259 12.5001 9.37467 12.5001ZM9.37467 6.25008C10.5205 6.25008 11.458 7.18758 11.458 8.33342C11.458 9.47925 10.5205 10.4167 9.37467 10.4167C8.22884 10.4167 7.29134 9.47925 7.29134 8.33342C7.29134 7.18758 8.22884 6.25008 9.37467 6.25008Z" fill="#53627B"/>
<path d="M9.37484 13.5417C6.59359 13.5417 1.0415 14.9376 1.0415 17.7084V20.8334H17.7082V17.7084C17.7082 14.9376 12.1561 13.5417 9.37484 13.5417ZM15.6248 18.7501H3.12484V17.7188C3.33317 16.9688 6.56234 15.6251 9.37484 15.6251C12.1873 15.6251 15.4165 16.9688 15.6248 17.7084V18.7501Z" fill="#53627B"/>
</g>
<defs>
<clipPath id="clip0_17_396">
<rect width="25" height="25" fill="white"/>
</clipPath>
</defs>
</svg>
