<svg width="25" height="25" viewBox="0 0 25 25" fill="none" xmlns="http://www.w3.org/2000/svg">
<circle cx="12.5" cy="12.5" r="3.125" stroke="#53627B" stroke-width="1.5"/>
<path d="M5.26901 5.79537C4.25059 6.89305 3.51108 8.19569 3.08049 9.5913L4.99349 10.6958C6.38238 11.4976 6.38238 13.5023 4.99349 14.3042L3.07861 15.4098C3.29244 16.0999 3.58596 16.7771 3.96245 17.4292C4.33892 18.0813 4.77863 18.6741 5.26937 19.2043L7.18428 18.0987C8.57317 17.2968 10.3093 18.2992 10.3093 19.9029V22.112C11.7332 22.4369 13.2311 22.4477 14.6909 22.1146L14.6909 19.903C14.6909 18.2993 16.427 17.2969 17.8159 18.0988L19.7312 19.2046C20.7496 18.1069 21.4891 16.8043 21.9197 15.4087L20.0067 14.3042C18.6178 13.5023 18.6178 11.4976 20.0067 10.6957L21.9216 9.59014C21.7078 8.90003 21.4142 8.22283 21.0378 7.57076C20.6613 6.91867 20.2216 6.32587 19.7308 5.79562L17.8159 6.90118C16.427 7.70306 14.6909 6.70071 14.6909 5.09696V2.888C13.267 2.56311 11.7691 2.55222 10.3093 2.88536L10.3093 5.09694C10.3093 6.70069 8.57317 7.70303 7.18428 6.90116L5.26901 5.79537Z" stroke="#53627B" stroke-width="1.5" stroke-linejoin="round"/>
</svg>
