<svg width="25" height="25" viewBox="0 0 25 25" fill="none" xmlns="http://www.w3.org/2000/svg">
<path d="M4.1665 16.6667H20.8332V20.8751C20.8332 21.4274 20.3855 21.8751 19.8332 21.8751H5.1665C4.61422 21.8751 4.1665 21.4274 4.1665 20.8751V16.6667Z" stroke="#53627B" stroke-width="1.5" stroke-linejoin="round"/>
<path d="M3.125 7.29175H21.875V14.6667C21.875 15.7713 20.9796 16.6667 19.875 16.6667H5.125C4.02043 16.6667 3.125 15.7713 3.125 14.6667V7.29175Z" stroke="#53627B" stroke-width="1.5" stroke-linejoin="round"/>
<path d="M8.3335 5.125C8.3335 4.02043 9.22893 3.125 10.3335 3.125H14.6668C15.7714 3.125 16.6668 4.02043 16.6668 5.125V7.29167H8.3335V5.125Z" stroke="#53627B" stroke-width="1.5" stroke-linejoin="round"/>
<path d="M12.5 13.5417H12.502V13.5437H12.5V13.5417Z" stroke="#53627B" stroke-width="1.5" stroke-linecap="round" stroke-linejoin="round"/>
</svg>
